<svg xmlns="http://www.w3.org/2000/svg" viewBox="0 0 512 512" role="img" aria-labelledby="title desc">
  <title id="title">py-Monocle3 sticker</title>
  <desc id="desc">OmicVerse repository hex sticker for py-Monocle3.</desc>
  <defs>
    <linearGradient id="bg" x1="112" y1="90" x2="398" y2="430" gradientUnits="userSpaceOnUse">
      <stop offset="0" stop-color="#050706"/>
      <stop offset=".58" stop-color="#020403"/>
      <stop offset="1" stop-color="#000000"/>
    </linearGradient>
  </defs>
  <polygon points="256,34 450,146 450,368 256,480 62,368 62,146" fill="#000000" opacity=".34"/>
  <polygon points="256,22 458,139 458,373 256,490 54,373 54,139" fill="url(#bg)" stroke="#0B0F0A" stroke-width="19" stroke-linejoin="round"/>
  <polygon points="256,22 458,139 458,373 256,490 54,373 54,139" fill="none" stroke="#E8FFE0" stroke-width="12" stroke-linejoin="round"/>
  <g opacity=".22" stroke="#3FD36B" stroke-width="2.2">
    <path d="M112 166h288M100 222h312M100 278h312M112 334h288"/>
    <path d="M152 126v236M204 104v274M256 96v286M308 104v274M360 126v236"/>
  </g>
  <g id="motif">
    <circle cx="234" cy="222" r="76" fill="#FFFFFF" opacity=".08" stroke="#FFFFFF" stroke-width="8"/>
    <path d="M286 274l72 72" stroke="#FFFFFF" stroke-width="12" stroke-linecap="round"/>
    <path d="M174 242c30-74 96-74 132 0" fill="none" stroke="#32D74B" stroke-width="8" stroke-linecap="round"/>
    <path d="M188 268c48-20 76-18 112 12" fill="none" stroke="#FFD60A" stroke-width="7" stroke-linecap="round"/>
    <circle cx="188" cy="244" r="12" fill="#FF6961"/><circle cx="240" cy="206" r="12" fill="#FFD60A"/><circle cx="296" cy="244" r="12" fill="#32D74B"/>
  </g>
  <path id="label" d="M306.12,382.92 L310.77,390.96 L305.87,393.78 L293.67,372.64 L298.56,369.82 L299.85,372.06 Q300.10,370.13 300.96,368.79 Q301.82,367.44 303.42,366.52 Q306.26,364.89 309.37,366.09 Q312.49,367.28 314.53,370.82 Q316.58,374.36 316.06,377.67 Q315.54,380.97 312.71,382.60 Q311.11,383.53 309.51,383.60 Q307.91,383.67 306.12,382.92 Z M303.66,371.12 Q302.08,372.03 301.91,373.67 Q301.73,375.31 302.99,377.49 Q304.25,379.66 305.75,380.33 Q307.26,381.00 308.83,380.09 Q310.41,379.19 310.57,377.56 Q310.74,375.93 309.47,373.74 Q308.21,371.56 306.72,370.89 Q305.23,370.22 303.66,371.12 Z M311.70,362.23 L316.60,359.40 L326.72,367.42 L324.22,355.01 L329.11,352.18 L332.35,372.66 Q332.86,375.78 332.15,377.54 Q331.45,379.31 329.33,380.53 L326.50,382.17 L324.64,378.95 L326.17,378.07 Q327.42,377.35 327.75,376.63 Q328.09,375.91 327.81,374.70 L327.71,374.19 L311.70,362.23 Z M334.17,356.28 L342.76,351.32 L345.05,355.30 L336.47,360.25 L334.17,356.28 Z M359.25,338.17 Q359.36,336.21 360.21,334.73 Q361.06,333.25 362.59,332.36 Q365.23,330.84 367.55,331.67 Q369.87,332.49 371.66,335.60 L377.05,344.92 L372.12,347.77 L367.51,339.78 Q367.42,339.59 367.32,339.40 Q367.22,339.21 367.01,338.85 Q366.07,337.22 365.17,336.77 Q364.27,336.31 363.20,336.93 Q361.81,337.73 361.71,339.32 Q361.62,340.90 362.84,343.10 L367.18,350.62 L362.26,353.46 L357.65,345.47 Q356.18,342.93 355.32,342.45 Q354.46,341.97 353.34,342.62 Q351.93,343.43 351.83,345.03 Q351.74,346.63 352.98,348.78 L357.33,356.31 L352.40,359.15 L343.56,343.84 L348.48,341.00 L349.78,343.24 Q349.94,341.42 350.72,340.09 Q351.51,338.76 352.92,337.94 Q354.51,337.03 356.17,337.09 Q357.83,337.15 359.25,338.17 Z M381.87,325.90 Q380.24,326.84 380.06,328.50 Q379.88,330.16 381.15,332.36 Q382.42,334.56 383.95,335.24 Q385.48,335.92 387.11,334.98 Q388.71,334.05 388.88,332.40 Q389.05,330.74 387.78,328.53 Q386.51,326.33 384.99,325.66 Q383.47,324.97 381.87,325.90 Z M379.85,322.40 Q383.80,320.12 387.25,320.97 Q390.71,321.82 392.88,325.59 Q395.06,329.37 394.07,332.78 Q393.08,336.20 389.13,338.48 Q385.16,340.77 381.70,339.93 Q378.23,339.08 376.05,335.31 Q373.87,331.54 374.88,328.11 Q375.88,324.69 379.85,322.40 Z M410.86,312.97 L416.25,322.29 L411.32,325.13 L410.45,323.62 L407.20,318.00 Q406.06,316.02 405.54,315.31 Q405.02,314.61 404.59,314.38 Q404.02,314.07 403.38,314.09 Q402.73,314.10 402.10,314.47 Q400.57,315.35 400.38,317.04 Q400.19,318.73 401.39,320.82 L405.74,328.36 L400.85,331.18 L392.01,315.87 L396.90,313.04 L398.20,315.28 Q398.53,313.30 399.41,311.95 Q400.29,310.60 401.79,309.73 Q404.44,308.20 406.76,309.03 Q409.07,309.86 410.86,312.97 Z M421.04,303.28 Q419.41,304.22 419.24,305.88 Q419.06,307.54 420.33,309.74 Q421.60,311.94 423.13,312.62 Q424.66,313.30 426.28,312.36 Q427.89,311.44 428.06,309.78 Q428.23,308.12 426.96,305.92 Q425.69,303.72 424.16,303.04 Q422.64,302.36 421.04,303.28 Z M419.02,299.78 Q422.97,297.50 426.43,298.35 Q429.88,299.20 432.06,302.97 Q434.24,306.75 433.25,310.17 Q432.26,313.58 428.30,315.86 Q424.34,318.15 420.87,317.31 Q417.41,316.47 415.23,312.69 Q413.05,308.92 414.05,305.50 Q415.06,302.07 419.02,299.78 Z M444.36,291.38 Q446.74,290.72 448.57,291.42 Q450.41,292.12 451.58,294.16 Q453.34,297.20 451.92,300.12 Q450.51,303.04 446.06,305.61 Q444.48,306.52 442.75,307.18 Q441.03,307.84 439.19,308.22 L436.85,304.16 Q438.75,304.05 440.42,303.59 Q442.10,303.12 443.51,302.31 Q445.60,301.10 446.30,299.73 Q446.99,298.36 446.21,297.01 Q445.40,295.61 443.85,295.55 Q442.29,295.49 440.06,296.78 L437.95,298.00 L436.00,294.61 L438.21,293.33 Q440.20,292.18 440.81,291.00 Q441.42,289.82 440.68,288.55 Q440.01,287.37 438.69,287.28 Q437.38,287.18 435.65,288.17 Q434.38,288.90 433.25,289.94 Q432.12,290.98 431.15,292.28 L428.93,288.43 Q430.23,287.09 431.64,285.99 Q433.04,284.88 434.52,284.03 Q438.50,281.73 441.23,281.90 Q443.96,282.06 445.47,284.69 Q446.51,286.48 446.22,288.17 Q445.94,289.85 444.36,291.38 Z" fill="#FFFFFF"/>
</svg>
